<svg width="15" height="15" viewBox="0 0 15 15" fill="none" xmlns="http://www.w3.org/2000/svg">
<path d="M13.75 4.375V3.125H11.875V1.25H10.625V3.125H8.125V1.25H6.875V3.125H4.375V1.25H3.125V3.125H1.25V4.375H3.125V6.875H1.25V8.125H3.125V10.625H1.25V11.875H3.125V13.75H4.375V11.875H6.875V13.75H8.125V11.875H10.625V13.75H11.875V11.875H13.75V10.625H11.875V8.125H13.75V6.875H11.875V4.375H13.75ZM4.375 4.375H6.875V6.875H4.375V4.375ZM4.375 10.625V8.125H6.875V10.625H4.375ZM10.625 10.625H8.125V8.125H10.625V10.625ZM10.625 6.875H8.125V4.375H10.625V6.875Z" fill="black"/>
</svg>
